<svg width="14" height="14" viewBox="0 0 14 14" fill="none" xmlns="http://www.w3.org/2000/svg">
    <path d="M6 7H3V8H5.33628C5.50224 7.64742 5.72515 7.31156 6 7Z" fill="#666666"/>
    <path d="M5 9H3V10H5V9Z" fill="#666666"/>
    <path d="M10 14C12.2091 14 14 12.2091 14 10C14 7.79086 12.2091 6 10 6C7.79086 6 6 7.79086 6 10C6 12.2091 7.79086 14 10 14Z" fill="#666666"/>
    <path d="M8 5H3V6H6.36502C6.82982 5.5922 7.38359 5.2535 8 5Z" fill="#666666"/>
    <path d="M5.44364 11.8H2.18182V4H12.8182V5.2C13.2471 5.41567 13.6448 5.69025 14 6.016V1.6C14 1.44087 13.9377 1.28826 13.8269 1.17574C13.7161 1.06321 13.5658 1 13.4091 1H1.59091C1.43419 1 1.28389 1.06321 1.17307 1.17574C1.06226 1.28826 1 1.44087 1 1.6V12.4C1 12.5591 1.06226 12.7117 1.17307 12.8243C1.28389 12.9368 1.43419 13 1.59091 13H6.03455C5.78984 12.6261 5.59138 12.2231 5.44364 11.8ZM2.18182 2.2H4.54545V2.8H2.18182V2.2Z" fill="#666666"/>
    <path d="M11.875 9.5H8.125C7.77982 9.5 7.5 9.72386 7.5 10C7.5 10.2761 7.77982 10.5 8.125 10.5H11.875C12.2202 10.5 12.5 10.2761 12.5 10C12.5 9.72386 12.2202 9.5 11.875 9.5Z" fill="white"/>
    <path d="M10.5 11.875V8.125C10.5 7.77982 10.2761 7.5 10 7.5C9.72386 7.5 9.5 7.77982 9.5 8.125V11.875C9.5 12.2202 9.72386 12.5 10 12.5C10.2761 12.5 10.5 12.2202 10.5 11.875Z" fill="white"/>
</svg>
