<svg width="14" height="14" viewBox="0 0 14 14" fill="none" xmlns="http://www.w3.org/2000/svg">
    <path d="M7 2.2C7.94935 2.2 8.87738 2.48151 9.66674 3.00895C10.4561 3.53638 11.0713 4.28603 11.4346 5.16312C11.7979 6.0402 11.893 7.00532 11.7078 7.93643C11.5226 8.86754 11.0654 9.72282 10.3941 10.3941C9.72282 11.0654 8.86754 11.5226 7.93644 11.7078C7.00533 11.893 6.04021 11.7979 5.16312 11.4346C4.28604 11.0713 3.53638 10.4561 3.00895 9.66673C2.48152 8.87738 2.2 7.94935 2.2 7C2.2 5.72696 2.70572 4.50606 3.60589 3.60589C4.50606 2.70571 5.72696 2.2 7 2.2ZM7 1C5.81331 1 4.65328 1.35189 3.66658 2.01118C2.67989 2.67047 1.91085 3.60754 1.45673 4.7039C1.0026 5.80025 0.88378 7.00665 1.11529 8.17054C1.3468 9.33443 1.91825 10.4035 2.75736 11.2426C3.59648 12.0818 4.66557 12.6532 5.82946 12.8847C6.99335 13.1162 8.19975 12.9974 9.2961 12.5433C10.3925 12.0891 11.3295 11.3201 11.9888 10.3334C12.6481 9.34672 13 8.18669 13 7C13 6.21207 12.8448 5.43185 12.5433 4.7039C12.2417 3.97594 11.7998 3.31451 11.2426 2.75736C10.6855 2.20021 10.0241 1.75825 9.2961 1.45672C8.56815 1.15519 7.78793 1 7 1Z" fill="#DB1414"/>
    <path d="M7 4.00732C6.86739 4.00732 6.74021 4.05993 6.64645 4.15357C6.55268 4.24721 6.5 4.37422 6.5 4.50665V7.50257C6.5 7.635 6.55268 7.76201 6.64645 7.85565C6.74021 7.94929 6.86739 8.00189 7 8.00189C7.13261 8.00189 7.25979 7.94929 7.35355 7.85565C7.44732 7.76201 7.5 7.635 7.5 7.50257V4.50665C7.5 4.37422 7.44732 4.24721 7.35355 4.15357C7.25979 4.05993 7.13261 4.00732 7 4.00732Z" fill="#DB1414"/>
    <path d="M7 8.99268C6.90111 8.99268 6.80444 9.022 6.72221 9.07694C6.63999 9.13188 6.5759 9.20997 6.53806 9.30133C6.50022 9.3927 6.49031 9.49323 6.50961 9.59022C6.5289 9.68721 6.57652 9.7763 6.64645 9.84623C6.71637 9.91616 6.80546 9.96378 6.90246 9.98307C6.99945 10.0024 7.09998 9.99246 7.19134 9.95462C7.28271 9.91677 7.36079 9.85269 7.41573 9.77046C7.47068 9.68824 7.5 9.59157 7.5 9.49268C7.5 9.36007 7.44732 9.23289 7.35355 9.13912C7.25979 9.04535 7.13261 8.99268 7 8.99268Z" fill="#DB1414"/>
</svg>
