<svg width="14" height="14" viewBox="0 0 14 14" fill="none" xmlns="http://www.w3.org/2000/svg">
    <path d="M7 2.2C7.94935 2.2 8.87738 2.48151 9.66674 3.00894C10.4561 3.53637 11.0713 4.28604 11.4346 5.16312C11.7979 6.04021 11.893 7.00533 11.7078 7.93644C11.5226 8.86755 11.0654 9.72282 10.3941 10.3941C9.72283 11.0654 8.86755 11.5226 7.93644 11.7078C7.00533 11.893 6.04021 11.7979 5.16312 11.4346C4.28604 11.0713 3.53637 10.4561 3.00894 9.66674C2.48151 8.87738 2.2 7.94935 2.2 7C2.2 5.72696 2.70571 4.50606 3.60588 3.60588C4.50606 2.70571 5.72696 2.2 7 2.2ZM7 1C5.81331 1 4.65327 1.35189 3.66657 2.01118C2.67988 2.67047 1.91085 3.60755 1.45672 4.7039C1.00259 5.80026 0.883781 7.00665 1.11529 8.17054C1.3468 9.33442 1.91824 10.4035 2.75736 11.2426C3.59647 12.0818 4.66558 12.6532 5.82946 12.8847C6.99335 13.1162 8.19974 12.9974 9.2961 12.5433C10.3925 12.0892 11.3295 11.3201 11.9888 10.3334C12.6481 9.34673 13 8.18669 13 7C13 6.21207 12.8448 5.43186 12.5433 4.7039C12.2418 3.97595 11.7998 3.31451 11.2426 2.75735C10.6855 2.2002 10.0241 1.75825 9.2961 1.45672C8.56814 1.15519 7.78793 1 7 1Z" fill="#666666"/>
    <path fill-rule="evenodd" clip-rule="evenodd" d="M8.77037 6.5C8.77037 4.76221 8.14737 3.07407 7 1.70288L7.97023 1C9.28571 2.5721 10 4.50759 10 6.5C10 8.49241 9.28571 10.4279 7.97023 12L7 11.2971C8.14737 9.92593 8.77037 8.23779 8.77037 6.5Z" fill="#666666"/>
    <path fill-rule="evenodd" clip-rule="evenodd" d="M4 6.5C4 4.50759 4.71429 2.5721 6.02977 1L7 1.70288C5.85263 3.07407 5.22963 4.76221 5.22963 6.5C5.22963 8.23779 5.85263 9.92593 7 11.2971L6.02977 12C4.71429 10.4279 4 8.49241 4 6.5Z" fill="#666666"/>
    <path fill-rule="evenodd" clip-rule="evenodd" d="M7 6C5.256 6 3.53882 5.62534 2 4.90909L2.55556 4C3.9234 4.63667 5.44978 4.9697 7 4.9697C8.55022 4.9697 10.0766 4.63667 11.4444 4L12 4.90909C10.4612 5.62534 8.744 6 7 6Z" fill="#666666"/>
    <path fill-rule="evenodd" clip-rule="evenodd" d="M7.5 9C5.60645 9 3.73354 8.6466 2 7.9622L2.47069 7C4.05588 7.62583 5.7685 7.94898 7.5 7.94898C9.2315 7.94898 10.9441 7.62583 12.5293 7L13 7.9622C11.2665 8.6466 9.39355 9 7.5 9Z" fill="#666666"/>
</svg>
