<svg width="14" height="14" viewBox="0 0 14 14" fill="none" xmlns="http://www.w3.org/2000/svg">
    <path d="M12.8182 11.8333H2.18182V6H1V12.4167C1 12.5714 1.06226 12.7197 1.17307 12.8291C1.28389 12.9385 1.43419 13 1.59091 13H13.4091C13.5658 13 13.7161 12.9385 13.8269 12.8291C13.9377 12.7197 14 12.5714 14 12.4167V6H12.8182V11.8333Z" fill="#666666"/>
    <path d="M13.4091 1H1.59091C1.43419 1 1.28389 1.06585 1.17307 1.18306C1.06226 1.30027 1 1.45924 1 1.625V6H2.18182V4.125H12.8182V6H14V1.625C14 1.45924 13.9377 1.30027 13.8269 1.18306C13.7161 1.06585 13.5658 1 13.4091 1ZM4.54545 2.875H2.18182V2.25H4.54545V2.875Z" fill="#666666"/>
    <path d="M11 5H3V6H11V5Z" fill="#666666"/>
    <path d="M11 7H3V8H11V7Z" fill="#666666"/>
    <path d="M5 9H3V10H5V9Z" fill="#666666"/>
</svg>
