<svg width="14" height="14" viewBox="0 0 14 14" fill="none" xmlns="http://www.w3.org/2000/svg">
    <g clip-path="url(#clip0_2329_17808)">
        <path d="M11.6667 4.66667H8.75V1.75L11.6667 4.66667Z" fill="#666666"/>
        <path d="M7.58332 12.186H2.39749V1.81433H8.81416L11.5908 4.591V7.5835H12.8333V4.32266C12.8327 4.16963 12.7719 4.02298 12.6642 3.91433L9.50249 0.752663C9.39384 0.644895 9.24719 0.58414 9.09416 0.583496H1.74999C1.59528 0.583496 1.44691 0.644954 1.33751 0.75435C1.22811 0.863747 1.16666 1.01212 1.16666 1.16683V12.8335C1.16666 12.9882 1.22811 13.1366 1.33751 13.246C1.44691 13.3554 1.59528 13.4168 1.74999 13.4168H7.58332V12.186Z" fill="#666666"/>
        <path d="M13.4167 10.5118L10.5 7.5835V9.93077H7.58334V11.116H10.5V13.4168L13.4167 10.5118Z" fill="#666666"/>
    </g>
    <defs>
        <clipPath id="clip0_2329_17808">
            <rect width="14" height="14" fill="white"/>
        </clipPath>
    </defs>
</svg>
