<svg width="18" height="18" viewBox="0 0 18 18" fill="none" xmlns="http://www.w3.org/2000/svg">
    <path d="M9 4.5C9.89002 4.5 10.76 4.76392 11.5001 5.25839C12.2401 5.75285 12.8169 6.45566 13.1575 7.27792C13.4981 8.10019 13.5872 9.00499 13.4135 9.87791C13.2399 10.7508 12.8113 11.5526 12.182 12.182C11.5526 12.8113 10.7508 13.2399 9.87791 13.4135C9.005 13.5872 8.1002 13.4981 7.27793 13.1575C6.45566 12.8169 5.75286 12.2401 5.25839 11.5001C4.76392 10.76 4.5 9.89002 4.5 9C4.5 7.80653 4.97411 6.66193 5.81802 5.81802C6.66194 4.97411 7.80653 4.5 9 4.5ZM9 3C7.81332 3 6.65328 3.35189 5.66658 4.01118C4.67989 4.67047 3.91085 5.60754 3.45673 6.7039C3.0026 7.80026 2.88378 9.00666 3.11529 10.1705C3.3468 11.3344 3.91825 12.4035 4.75736 13.2426C5.59648 14.0818 6.66558 14.6532 7.82946 14.8847C8.99335 15.1162 10.1997 14.9974 11.2961 14.5433C12.3925 14.0892 13.3295 13.3201 13.9888 12.3334C14.6481 11.3467 15 10.1867 15 9C15 7.4087 14.3679 5.88258 13.2426 4.75736C12.1174 3.63214 10.5913 3 9 3Z" fill="#666666"/>
    <path d="M9.75 0.75H8.25V3.75H9.75V0.75Z" fill="#666666"/>
    <path d="M9.75 14.25H8.25V17.25H9.75V14.25Z" fill="#666666"/>
    <path d="M17.25 8.25H14.25V9.75H17.25V8.25Z" fill="#666666"/>
    <path d="M3.75 8.25H0.75V9.75H3.75V8.25Z" fill="#666666"/>
    <path d="M9 10.5C9.82843 10.5 10.5 9.82843 10.5 9C10.5 8.17157 9.82843 7.5 9 7.5C8.17157 7.5 7.5 8.17157 7.5 9C7.5 9.82843 8.17157 10.5 9 10.5Z" fill="#666666"/>
</svg>
