<svg xmlns="http://www.w3.org/2000/svg" viewBox="0 0 25.16 32">
    <defs>
        <style>.cls-1{opacity:0.3;}</style>
    </defs>
    <g id="图层_2" data-name="图层 2">
        <g id="图层_1-2" data-name="图层 1">
            <path d="M24.66,2.44h-19a.5.5,0,0,0-.5.5v7a.51.51,0,0,0,.5.5h19a.5.5,0,0,0,.5-.5v-7A.5.5,0,0,0,24.66,2.44ZM14.59,6.75c0,1.13-.52,1.69-1.57,1.69S11.5,7.89,11.5,6.79V4.59h.81V6.8c0,.63.25.94.74.94s.74-.3.74-.91V4.59h.8Zm4.19,1.62H18l-1.6-2.44a1.57,1.57,0,0,1-.18-.31h0a4.73,4.73,0,0,1,0,.6V8.37h-.76V4.59h.88L17.84,7a3.2,3.2,0,0,1,.19.3h0a5.14,5.14,0,0,1,0-.52V4.59h.76Z"/>
            <path d="M15.61,13.25a3.89,3.89,0,0,1,1.31,3.1A4.19,4.19,0,0,1,16.09,19a21,21,0,0,1-1.82,1.69,3.32,3.32,0,0,0-.91,1.13A3,3,0,0,0,13,23.26v.37H10.69v-.37a4.35,4.35,0,0,1,.43-2.07,11.55,11.55,0,0,1,2.45-2.69l.37-.41a2.59,2.59,0,0,0,0-3.37,2.5,2.5,0,0,0-1.84-.65A2.41,2.41,0,0,0,10,15a3.63,3.63,0,0,0-.59,2.21H7.08a5,5,0,0,1,1.37-3.73,5,5,0,0,1,3.78-1.39A4.84,4.84,0,0,1,15.61,13.25ZM13,25.23a1.45,1.45,0,0,1,.45,1.11A1.58,1.58,0,0,1,13,27.47a1.63,1.63,0,0,1-1.13.43,1.54,1.54,0,0,1-1.13-.45,1.51,1.51,0,0,1-.46-1.11,1.42,1.42,0,0,1,.46-1.11,1.51,1.51,0,0,1,1.13-.43A1.56,1.56,0,0,1,13,25.23Z"/>
            <path class="cls-1" d="M23,0H1A1,1,0,0,0,0,1V31a1,1,0,0,0,1,1H23a1,1,0,0,0,1-1V1A1,1,0,0,0,23,0Zm0,30.3a.71.71,0,0,1-.7.7H1.7a.71.71,0,0,1-.7-.7V1.7A.71.71,0,0,1,1.7,1H22.3a.71.71,0,0,1,.7.7Z"/>
        </g>
    </g>
</svg>
